<svg width="26" height="30" viewBox="0 0 26 30" fill="none" xmlns="http://www.w3.org/2000/svg">
<path d="M25.5514 17.7181L14.1841 29.5302C13.8458 29.8658 13.4398 30 13.0338 30C12.5602 30 12.1542 29.8658 11.8159 29.5302L0.448598 17.7181C-0.160365 17.047 -0.160365 16.0403 0.516261 15.4362C1.12522 14.8322 2.20782 14.8322 2.81679 15.5034L11.4099 24.4295V1.61074C11.4099 0.671141 12.0866 0 12.9662 0C13.7781 0 14.6577 0.671141 14.6577 1.61074V24.4295L23.1832 15.5034C23.7922 14.8322 24.8748 14.8322 25.4837 15.4362C26.1604 16.0403 26.1604 17.047 25.5514 17.7181Z" fill="#FF9D79"/>
</svg>
