<svg xmlns="http://www.w3.org/2000/svg" width="40" height="40" viewBox="0 0 40 40" fill="none">
<path d="M21.25 14.207L26.75 19.4535C26.9062 19.6096 27 19.797 27 20.0156C27 20.203 26.9062 20.3904 26.75 20.5465L21.25 25.793C20.9688 26.074 20.4688 26.074 20.1875 25.7617C19.9062 25.4807 19.9062 24.981 20.2188 24.6999L24.375 20.7651H13.75C13.3125 20.7651 13 20.4216 13 20.0156C13 19.5784 13.3125 19.2661 13.75 19.2661H24.375L20.2188 15.3001C19.9062 15.019 19.9062 14.5193 20.1875 14.2383C20.4688 13.926 20.9375 13.926 21.25 14.207Z" fill="#0F1010"/>
</svg>