<?xml version="1.0" encoding="UTF-8"?>
<svg id="Layer_1" data-name="Layer 1" xmlns="http://www.w3.org/2000/svg" viewBox="0 0 120 120">
  <defs>
    <style>
      .cls-1 {
        fill: #4a5d22;
        stroke-width: 0px;
      }
    </style>
  </defs>
  <path class="cls-1" d="m89.74,90.85h-57.72l-2.59-15.5h62.89l-2.59,15.5Zm-53.43-5h49.15l.92-5.5h-50.99l.92,5.5Z"/>
  <path class="cls-1" d="m83.49,120h-45.2l-3.22-27.23h51.65l-3.22,27.23Zm-40.71-5h36.22l2.04-17.23h-40.29l2.04,17.23Z"/>
  <path class="cls-1" d="m91.85,5.49C87.95,1.64,82.68-.3,76.99.04c-5.56.33-11.09,2.81-16.12,7.21C55.87,2.88,50.37.43,44.82.11c-5.68-.32-10.95,1.63-14.83,5.48-2.56,2.53-4.28,5.65-5.07,9.1,1.91-.85,3.86-1.35,5.83-1.48.69-1.56,1.66-2.94,2.82-4.09,2.47-2.45,6.02-4.03,10.1-4.03,4.7,0,10.11,2.1,15.42,7.36l1.79,1.76,1.79-1.76c9.99-9.9,20.28-8.71,25.62-3.43,5.34,5.29,6.53,15.48-3.45,25.38l-21.42,21.2v-13.11l9.27-8.99-3.53-3.58-5.74,5.57v-6.13l9.27-8.99-3.53-3.57-7.66,7.44-6.86-7.4-3.72,3.38,7.45,8.05v5.73l-3.74-4.03-3.72,3.37,7.45,8.06v14.22l-16.9-16.73c-.55.67-1.15,1.33-1.8,1.97l-1.68,1.66,20.38,20.18v14.8h5.05v-14.83l24.98-24.74c5.49-5.43,8.58-11.56,8.96-17.72.34-5.64-1.61-10.87-5.49-14.72Z"/>
  <path class="cls-1" d="m20.34,55.14l-15.31-15.16C.85,35.83-.84,30.82.4,26.25c1.04-3.85,3.99-6.77,7.88-7.8,3.98-1.05,8.28.04,12.07,3.02,2.63-2.08,5.5-3.25,8.4-3.42,3.3-.19,6.47.97,8.73,3.21,2.26,2.23,3.44,5.39,3.24,8.65-.21,3.53-1.96,7.02-5.05,10.08l-15.31,15.16ZM11.28,23.06c-.58,0-1.15.07-1.7.22-2.13.56-3.74,2.16-4.31,4.27-.76,2.8.46,6.04,3.34,8.9l11.74,11.62,11.74-11.62c4.67-4.62,4.21-9.28,1.82-11.65-2.4-2.37-7.1-2.82-11.77,1.8l-1.78,1.77-1.78-1.77c-2.32-2.29-4.89-3.52-7.28-3.52Z"/>
  <path class="cls-1" d="m106.15,65.3l-10.36-10.26c-4.72-4.67-4.14-10.15-1.12-13.13,1.62-1.6,3.9-2.45,6.23-2.31,1.81.1,3.6.76,5.25,1.91,4.28-3.02,8.86-2.26,11.51.36,1.62,1.6,2.46,3.85,2.32,6.18-.15,2.47-1.35,4.88-3.47,6.98l-10.36,10.26Zm-5.74-20.71c-.84,0-1.6.3-2.17.86-1.25,1.23-1.38,3.59,1.12,6.06l6.79,6.72,6.79-6.72c1.24-1.22,1.93-2.52,2-3.75.06-.91-.25-1.75-.85-2.35-.6-.6-1.44-.9-2.37-.84-1.24.07-2.55.76-3.78,1.98l-1.78,1.77-1.78-1.77c-1.22-1.21-2.52-1.89-3.75-1.96-.07,0-.14,0-.2,0Z"/>
</svg>