<?xml version="1.0" encoding="UTF-8"?>
<svg id="Layer_1" data-name="Layer 1" xmlns="http://www.w3.org/2000/svg" viewBox="0 0 120 120">
  <defs>
    <style>
      .cls-1 {
        fill: #4a5d22;
        stroke-width: 0px;
      }
    </style>
  </defs>
  <rect class="cls-1" x="13.91" y="17.26" width="5" height="8.99" transform="translate(-10.58 17.97) rotate(-45)"/>
  <rect class="cls-1" x="26.27" y=".36" width="5" height="16.2" transform="translate(-1.18 7) rotate(-13.59)"/>
  <rect class="cls-1" x="41.11" y="10.44" width="11.74" height="5" transform="translate(12.08 46.95) rotate(-59.66)"/>
  <g>
    <path class="cls-1" d="m76.87,91.13l-13.09-48.13c-.59-2.16-1.98-3.96-3.92-5.07-1.94-1.11-4.19-1.4-6.35-.81-1.24.34-2.34.94-3.26,1.73-.73-1.36-1.83-2.49-3.21-3.29-1.95-1.11-4.2-1.41-6.36-.82-1.21.33-2.29.91-3.19,1.67-.73-1.49-1.88-2.74-3.36-3.6-2.11-1.21-4.63-1.43-6.94-.63-4.12,1.44-6.42,5.97-5.24,10.31l.27,1c-1.14-.17-2.31-.11-3.45.2-2.16.59-3.95,1.98-5.07,3.92-1.11,1.94-1.4,4.2-.82,6.36l7.97,29.32-7.85-6.23c-1.77-1.41-4.07-2-6.3-1.64-2.23.36-4.22,1.67-5.46,3.57-2.23,3.43-1.38,8.19,1.94,10.82,1.42,1.12,2.84,2.24,4.25,3.36,3.9,3.08,7.93,6.25,11.82,9.46,1.61,1.33,3.37,3.24,5.24,5.27,4.93,5.35,10.9,11.84,18.32,11.84,1.12,0,2.28-.15,3.47-.47l17.14-4.66c10.18-2.77,16.21-13.3,13.44-23.48Zm-14.75,18.66l-17.14,4.66c-6.12,1.67-11.79-4.5-16.79-9.93-1.99-2.16-3.86-4.2-5.73-5.74-3.93-3.24-7.98-6.44-11.9-9.53-1.42-1.12-2.83-2.23-4.24-3.35-1.32-1.05-1.7-2.88-.85-4.18.48-.74,1.22-1.22,2.07-1.36.17-.03.34-.04.5-.04.68,0,1.34.23,1.88.66l11.02,8.74c1.25.99,2.97,1.06,4.3.19,1.33-.88,1.94-2.49,1.52-4.03l-9.03-33.22c-.24-.87-.12-1.78.33-2.56.45-.78,1.17-1.34,2.04-1.58s1.78-.12,2.56.32c.79.45,1.35,1.18,1.59,2.04h0s7.76,28.56,7.76,28.56l4.82-1.31-7.76-28.56h0s0,0,0,0l-2.28-8.38c-.49-1.79.44-3.71,2.06-4.28.95-.33,1.95-.25,2.8.24.79.46,1.35,1.18,1.59,2.05l1.58,5.82h0s8.52,31.34,8.52,31.34l4.82-1.31-8.52-31.34h0s0,0,0,0h0c-.49-1.8.57-3.66,2.37-4.15.87-.24,1.78-.12,2.55.33.79.46,1.35,1.18,1.59,2.05l.76,2.78h0s7.77,28.56,7.77,28.56l4.82-1.31-7.04-25.88h0c-.49-1.79.58-3.65,2.38-4.14.87-.24,1.77-.12,2.55.33.79.45,1.35,1.18,1.58,2.04l13.09,48.13c2.04,7.52-2.41,15.3-9.93,17.34Z"/>
    <path class="cls-1" d="m116.81,64.82c-1.41,1.11-2.82,2.22-4.22,3.33-3.91,3.08-7.96,6.27-11.85,9.49-1.61,1.32-3.37,3.24-5.24,5.27-3.96,4.3-8.61,9.35-14.14,11.15.18-1.74.12-3.53-.21-5.31,3.8-1.77,7.38-5.65,10.67-9.23,1.99-2.16,3.86-4.19,5.73-5.74,3.94-3.25,8.01-6.46,11.94-9.56,1.41-1.1,2.81-2.21,4.21-3.32,1.32-1.05,1.7-2.89.86-4.18-.48-.74-1.22-1.22-2.08-1.36-.86-.15-1.71.08-2.39.62l-11.02,8.74c-1.24.99-2.97,1.06-4.3.19-1.33-.88-1.94-2.5-1.52-4.03l9.03-33.22c.24-.87.12-1.78-.33-2.56-.45-.78-1.17-1.34-2.04-1.58-.87-.23-1.78-.11-2.57.33-.77.45-1.34,1.17-1.57,2.03h-.01s-7.76,28.57-7.76,28.57l-4.82-1.32,7.76-28.55v-.02l2.28-8.37c.49-1.79-.44-3.71-2.06-4.28-.96-.33-1.95-.25-2.81.25-.77.45-1.34,1.17-1.57,2.04l-1.04,3.81-.34,1.25-.21.77-8.52,31.33-4.82-1.31,8.52-31.34c.23-.87.12-1.78-.33-2.56-.44-.79-1.17-1.35-2.04-1.58-.87-.24-1.78-.12-2.56.33-.78.45-1.34,1.18-1.58,2.05l-.75,2.78-5.33,19.61-.92,3.38-.58-2.14c-.47-1.74-1.47-3.24-2.85-4.32l.58-2.13,3.55-13.04h0c.23-.87.11-1.78-.33-2.56-.45-.78-1.18-1.34-2.05-1.58-.87-.24-1.78-.12-2.55.32-.79.45-1.35,1.18-1.59,2.05l-3.78,13.9-.33,1.2c-.52-.17-1.05-.3-1.59-.36h-.01c-.57-.08-1.14-.09-1.71-.04-.51.04-1.02.13-1.52.27-.11.03-.23.07-.34.1l.51-1.86,3.95-14.52c.58-2.16,1.98-3.96,3.92-5.07,1.94-1.11,4.19-1.4,6.35-.82,1.22.34,2.33.93,3.26,1.73.73-1.36,1.83-2.49,3.19-3.28,1.96-1.12,4.22-1.41,6.37-.83,1.2.33,2.28.9,3.2,1.67.72-1.49,1.88-2.74,3.35-3.59,2.11-1.21,4.64-1.44,6.95-.63,4.12,1.44,6.42,5.97,5.24,10.31l-.27,1c1.13-.17,2.3-.11,3.44.2,2.16.58,3.96,1.98,5.07,3.91,1.11,1.95,1.4,4.2.81,6.36l-7.97,29.32,7.85-6.23c1.78-1.41,4.07-2,6.31-1.64,2.23.37,4.22,1.67,5.46,3.57,2.23,3.44,1.38,8.19-1.94,10.83Z"/>
  </g>
</svg>