<?xml version="1.0" encoding="UTF-8"?>
<svg id="Layer_1" data-name="Layer 1" xmlns="http://www.w3.org/2000/svg" viewBox="0 0 120 120">
  <defs>
    <style>
      .cls-1 {
        fill: #4a5d22;
        stroke-width: 0px;
      }
    </style>
  </defs>
  <path class="cls-1" d="m80.72,34.99c0-5.85-1.86-11.46-5.25-15.82L63.24,1.7c-.74-1.06-1.96-1.7-3.25-1.7s-2.5.63-3.24,1.7l-12.59,17.95c-3.16,4.28-4.89,9.73-4.89,15.34,0,12.19,8.04,22.26,18.36,23.61v14.81h5v-14.85c10.19-1.49,18.09-11.49,18.09-23.57Zm-36.45,0c0-4.53,1.39-8.91,3.94-12.37l11.78-16.81,11.43,16.33.08.11c2.72,3.47,4.21,8,4.21,12.74,0,9.25-5.67,16.93-13.09,18.43v-3.21l6.03-5.98-3.5-3.61-2.53,2.51v-5.77l6.03-5.98-3.5-3.61-2.53,2.51v-12.88h-5v6.44l-1.99-2.2-3.69,3.42,5.67,6.26v6.45l-1.99-2.2-3.69,3.42,5.67,6.26v8.21c-7.55-1.37-13.36-9.12-13.36-18.48Z"/>
  <path class="cls-1" d="m22.23,100.18h26.13l-1.02-19.27-6.22-11.08h0s-1.03-1.84-1.03-1.84c-3.16-5.63-8.23-9.92-14.26-12.07l-2.79-.99-6.52-13.85c-.56-1.2-1.61-2.12-2.86-2.51-.72-.23-1.49-.26-2.22-.13l-.69-8.99c-.09-1.72-1.03-3.25-2.53-4.08-1.49-.83-3.27-.82-4.76.04l-.11.06c-1.7.98-2.87,2.66-3.2,4.62l-.14,33.44,6.55,11.66,15.29,15.66.39,9.32ZM5,62.21l.1-31.42c.1-.37.33-.68.66-.89l1.14,14.79h.02c.02.18.02.37.05.55l3.09,17.58,12.43,9.76,3.07-3.99-10.91-8.57-2.75-15.66c-.05-.3.04-.6.24-.82l7.28,15.46,4.75,1.69c4.9,1.75,9.01,5.23,11.58,9.8l5.56,9.9h0s1.11,1.98,1.11,1.98l.67,12.75h-16.06l-.27-6.43-16.18-16.58-5.56-9.91Z"/>
  <polygon class="cls-1" points="21.61 120 26.61 120 26.61 109.71 44.19 109.72 44.19 120 49.19 120 49.19 104.66 21.61 104.66 21.61 120"/>
  <path class="cls-1" d="m119.9,30.52l-.04-.42c-.33-1.95-1.5-3.64-3.2-4.62l-.12-.07c-1.48-.85-3.26-.87-4.76-.04-1.5.83-2.44,2.35-2.52,4.01l-.7,9.05c-.74-.13-1.5-.1-2.22.13-1.25.4-2.3,1.32-2.86,2.51l-6.52,13.85-2.79.99c-6.04,2.15-11.1,6.44-14.26,12.07l-1.03,1.84h0s-6.22,11.08-6.22,11.08l-1.02,19.27h26.13l.39-9.32,15.29-15.66,6.55-11.66-.1-33.02Zm-10.47,41.6l-16.18,16.58-.27,6.43h-16.06l.67-12.75,1.11-1.98h0s5.56-9.9,5.56-9.9c2.57-4.57,6.68-8.05,11.58-9.8l4.75-1.69,7.28-15.46c.2.21.29.52.24.82l-2.75,15.66-10.91,8.57,3.07,3.99,12.43-9.76,3.08-17.58c.03-.18.04-.37.05-.55h.02s1.14-14.79,1.14-14.79c.32.2.56.52.66.89l.1,31.42-5.56,9.91Z"/>
  <polygon class="cls-1" points="70.81 120 75.81 120 75.81 109.71 93.39 109.71 93.39 120 98.39 120 98.39 104.66 70.81 104.66 70.81 120"/>
</svg>