<?xml version="1.0" encoding="UTF-8"?>
<svg id="Layer_1" data-name="Layer 1" xmlns="http://www.w3.org/2000/svg" viewBox="0 0 120 120">
  <defs>
    <style>
      .cls-1 {
        fill: #4a5d22;
        stroke-width: 0px;
      }
    </style>
  </defs>
  <path class="cls-1" d="m73.45,99.82h-38.1V14.68L14.01,5h59.44v11h5.01V0H-.06v103.94l1.47.67h0s2.64,1.2,2.64,1.2l1.17.53h0s30.14,13.67,30.14,13.67v-15.17h43.11v-34.26h-5.01v29.25Zm-43.11,12.41l-25.4-11.52V6.39l25.4,11.52v94.33Z"/>
  <path class="cls-1" d="m93.66,52.85c-3.17,0-6.01,1.43-7.93,3.67-1.91-2.24-4.75-3.67-7.93-3.67-5.75,0-10.43,4.68-10.43,10.43h5.01c0-2.99,2.43-5.42,5.42-5.42s5.42,2.43,5.42,5.42h5.01c0-2.99,2.43-5.42,5.42-5.42s5.42,2.43,5.42,5.42h5.01c0-5.75-4.68-10.43-10.43-10.43Z"/>
  <path class="cls-1" d="m66.03,29.86c-3.17,0-6.01,1.43-7.93,3.67-1.91-2.24-4.75-3.67-7.93-3.67-5.75,0-10.43,4.68-10.43,10.43h5.01c0-2.99,2.43-5.42,5.42-5.42s5.42,2.43,5.42,5.42h5.01c0-2.99,2.43-5.42,5.42-5.42s5.42,2.43,5.42,5.42h5.01c0-5.75-4.68-10.43-10.43-10.43Z"/>
  <path class="cls-1" d="m109.51,15.33c-3.17,0-6.01,1.43-7.93,3.67-1.91-2.24-4.75-3.67-7.93-3.67-5.75,0-10.43,4.68-10.43,10.43h5.01c0-2.99,2.43-5.42,5.42-5.42s5.42,2.43,5.42,5.42h5.01c0-2.99,2.43-5.42,5.42-5.42s5.42,2.43,5.42,5.42h5.01c0-5.75-4.68-10.43-10.43-10.43Z"/>
</svg>