<svg xmlns="http://www.w3.org/2000/svg" width="117" height="96" viewBox="0 0 117 96" fill="none">
    <g clip-path="url(#clip0_1057_1517)">
        <path d="M15.2389 28.7884V5.4415H100.708V28.7884H106.172V0H9.7749V28.7884H15.2389Z"
            fill="#FFFFFF">
        </path>
        <path d="M100.708 51.9189V90.5585H15.2389V51.9189H9.7749V96H106.172V51.9189H100.708Z"
            fill="#FFFFFF"></path>
        <path
            d="M0.0166016 32.9319H4.36107L9.72482 41.818L9.60786 32.9319H12.8495V46.2444H8.80581L3.09115 36.8757L3.22482 46.2444H0.0166016V32.9319Z"
            fill="#FFFFFF"></path>
        <path
            d="M18.3971 39.2387C17.9151 39.2091 17.433 39.2949 16.9911 39.4888C16.5493 39.6828 16.1605 39.9793 15.8572 40.3536L13.9022 38.6895C14.5251 38.0377 15.2821 37.5277 16.1214 37.1945C16.9607 36.8613 17.8624 36.7128 18.7647 36.7592C20.7197 36.7592 22.7917 37.1919 22.7917 39.688V43.116C22.7917 43.9313 23.0423 44.0977 23.4768 44.0977C23.6318 44.1077 23.7868 44.0791 23.9279 44.0145L23.4099 46.078C23.0119 46.2148 22.5945 46.2879 22.1734 46.2943C21.7238 46.3504 21.2678 46.2651 20.8693 46.0502C20.4708 45.8354 20.1497 45.5018 19.9511 45.0962C19.5735 45.5499 19.0937 45.9084 18.5508 46.1426C18.0078 46.3769 17.417 46.4801 16.8264 46.4441C16.4451 46.5155 16.0526 46.5017 15.6773 46.4039C15.302 46.3061 14.9531 46.1265 14.6558 45.8782C14.3586 45.6299 14.1203 45.3191 13.9582 44.968C13.7961 44.617 13.7142 44.2345 13.7184 43.8481C13.7184 41.2355 16.3585 40.7197 19.8341 40.52C19.8508 39.5881 19.6837 39.2387 18.3971 39.2387ZM19.9177 42.3671C17.9961 42.3671 16.7428 42.7332 16.7428 43.5819C16.752 43.6867 16.7837 43.7883 16.8358 43.8798C16.8879 43.9712 16.9592 44.0505 17.0448 44.1121C17.1305 44.1736 17.2284 44.2161 17.332 44.2366C17.4356 44.2571 17.5424 44.2552 17.6452 44.2309C18.1934 44.2694 18.7357 44.0979 19.1612 43.7515C19.5867 43.4051 19.8633 42.9099 19.9344 42.3671H19.9177Z"
            fill="#FFFFFF"></path>
        <path
            d="M23.7778 39.5882V37.0754H25.2483V35.8107C26.3066 35.1363 27.2971 34.3617 28.2059 33.4977H28.4231V37.0754H30.2945V39.5882H28.4231V42.9163C28.3973 43.0145 28.3962 43.1175 28.4201 43.2162C28.4439 43.3148 28.4918 43.4061 28.5596 43.4819C28.6275 43.5576 28.713 43.6155 28.8087 43.6504C28.9044 43.6853 29.0073 43.6961 29.1082 43.6818C29.4106 43.6948 29.7109 43.6258 29.9771 43.4821V46.078C29.3291 46.3126 28.6446 46.4309 27.9552 46.4275C27.5819 46.4754 27.2027 46.4438 26.8426 46.3348C26.4826 46.2258 26.1498 46.0419 25.8665 45.7951C25.4359 45.2223 25.2335 44.5109 25.2984 43.7983V39.5882H23.7778Z"
            fill="#FFFFFF"></path>
        <path
            d="M31.4638 43.3156V37.0754H34.5718V42.2506C34.5283 42.4364 34.5282 42.6296 34.5713 42.8154C34.6145 43.0012 34.6999 43.1747 34.8209 43.3225C34.9419 43.4704 35.0954 43.5886 35.2694 43.6682C35.4435 43.7478 35.6335 43.7865 35.825 43.7816C36.9947 43.7816 37.6296 43.1659 37.6296 41.2355V37.0754H40.7376V46.1445H37.6129V44.4805C37.3048 45.0597 36.8386 45.5405 36.268 45.8673C35.6974 46.1941 35.0457 46.3537 34.388 46.3276C33.9856 46.366 33.5798 46.3135 33.2006 46.1742C32.8213 46.0349 32.4785 45.8123 32.1976 45.5229C31.9166 45.2335 31.7048 44.8848 31.5777 44.5027C31.4507 44.1205 31.4118 43.7148 31.4638 43.3156Z"
            fill="#FFFFFF"></path>
        <path
            d="M42.2749 37.0754H45.3829V38.1737C45.5844 37.8023 45.8803 37.49 46.2409 37.268C46.6016 37.0461 47.0144 36.9223 47.4381 36.909C47.9941 36.8641 48.5458 37.0373 48.9754 37.3916L47.7222 40.1706C47.5987 40.0288 47.4439 39.9175 47.27 39.8453C47.096 39.7731 46.9077 39.7421 46.7196 39.7546C45.834 39.7546 45.4497 40.2871 45.4497 41.4186V46.1113H42.2749V37.0754Z"
            fill="#FFFFFF"></path>
        <path
            d="M53.3366 39.2387C52.8546 39.2091 52.3725 39.2949 51.9307 39.4888C51.4888 39.6828 51.1 39.9793 50.7967 40.3536L48.8417 38.6895C49.4646 38.0377 50.2216 37.5277 51.0609 37.1945C51.9002 36.8613 52.8019 36.7128 53.7042 36.7592C55.6592 36.7592 57.7312 37.1919 57.7312 39.688V43.116C57.7312 43.9313 57.9818 44.0977 58.4163 44.0977C58.5713 44.1077 58.7263 44.0791 58.8674 44.0145L58.2659 46.0114C57.8678 46.1483 57.4505 46.2213 57.0294 46.2277C56.5798 46.2838 56.1238 46.1985 55.7253 45.9836C55.3267 45.7688 55.0057 45.4352 54.807 45.0296C54.4294 45.4833 53.9497 45.8419 53.4067 46.0761C52.8637 46.3103 52.2729 46.4136 51.6823 46.3775C51.301 46.4489 50.9086 46.4352 50.5333 46.3373C50.1579 46.2395 49.8091 46.0599 49.5118 45.8117C49.2145 45.5634 48.9763 45.2525 48.8142 44.9015C48.6521 44.5504 48.5702 44.1679 48.5744 43.7816C48.5744 41.169 51.2145 40.6531 54.6901 40.4534C54.7736 39.5881 54.6065 39.2387 53.3366 39.2387ZM54.8572 42.3671C52.9356 42.3671 51.6823 42.7332 51.6823 43.5819C51.6915 43.6867 51.7232 43.7883 51.7753 43.8798C51.8274 43.9712 51.8987 44.0505 51.9843 44.1121C52.07 44.1736 52.1679 44.2161 52.2715 44.2366C52.3751 44.2571 52.4819 44.2552 52.5847 44.2309C53.1273 44.2607 53.6613 44.0852 54.0796 43.7396C54.4979 43.394 54.7696 42.9038 54.8404 42.3671H54.8572Z"
            fill="#FFFFFF"></path>
        <path d="M59.5693 32.9319H62.6773V46.2444H59.5693V32.9319Z" fill="#FFFFFF"></path>
        <path
            d="M69.6119 46.1446H66.27L71.2829 32.832H75.4101L80.423 46.1446H76.8806L75.995 43.6651H70.5142L69.6119 46.1446ZM73.2212 36.0104L71.3998 41.1024H75.0258L73.2212 36.0104Z"
            fill="#FFFFFF"></path>
        <path
            d="M80.9409 37.0754H84.0489V38.1737C84.2504 37.8023 84.5463 37.49 84.9069 37.268C85.2676 37.0461 85.6804 36.9223 86.1042 36.909C86.6602 36.8641 87.2118 37.0373 87.6414 37.3916L86.3882 40.1706C86.2647 40.0288 86.1099 39.9175 85.936 39.8453C85.762 39.7731 85.5737 39.7421 85.3856 39.7546C84.5 39.7546 84.1157 40.2871 84.1157 41.4186V46.1113H81.0078V37.0754H80.9409Z"
            fill="#FFFFFF"></path>
        <path
            d="M91.9191 44.0312C92.3413 44.0932 92.7724 44.0182 93.1485 43.8175C93.5246 43.6167 93.8259 43.3007 94.0078 42.9163L96.6312 43.7483C96.2204 44.6228 95.5497 45.3504 94.7098 45.8326C93.8699 46.3148 92.9016 46.5283 91.9358 46.4441C91.2767 46.4827 90.6165 46.3867 89.996 46.1621C89.3754 45.9374 88.8075 45.5888 88.327 45.1377C87.8466 44.6866 87.4638 44.1424 87.2022 43.5386C86.9406 42.9349 86.8057 42.2842 86.8057 41.6266C86.8057 40.969 86.9406 40.3184 87.2022 39.7146C87.4638 39.1109 87.8466 38.5667 88.327 38.1156C88.8075 37.6644 89.3754 37.3158 89.996 37.0912C90.6165 36.8665 91.2767 36.7706 91.9358 36.8092C94.2083 36.8092 97.049 38.1071 96.6981 42.3339H90.0143C90.0486 42.8076 90.2665 43.2495 90.6219 43.5663C90.9774 43.883 91.4425 44.0497 91.9191 44.0312ZM93.6903 40.5699C93.6639 40.3621 93.5957 40.1616 93.4899 39.9805C93.3841 39.7994 93.2429 39.6413 93.0746 39.5155C92.9063 39.3898 92.7143 39.299 92.5101 39.2486C92.3058 39.1982 92.0935 39.1892 91.8857 39.2221C91.4595 39.1636 91.0271 39.2711 90.6785 39.5222C90.3299 39.7732 90.092 40.1485 90.0143 40.5699H93.6736H93.6903Z"
            fill="#FFFFFF"></path>
        <path
            d="M101.945 39.2387C101.463 39.2091 100.981 39.2949 100.539 39.4888C100.097 39.6828 99.7083 39.9793 99.4051 40.3536L97.4501 38.6895C98.0729 38.0377 98.8299 37.5277 99.6692 37.1945C100.508 36.8613 101.41 36.7128 102.313 36.7592C104.268 36.7592 106.356 37.1919 106.356 39.688V43.116C106.356 43.9313 106.607 44.0977 107.041 44.0977C107.196 44.1077 107.351 44.0791 107.493 44.0145L106.958 46.078C106.56 46.2148 106.142 46.2879 105.721 46.2943C105.272 46.3504 104.816 46.2651 104.417 46.0502C104.019 45.8354 103.698 45.5018 103.499 45.0962C103.121 45.5499 102.642 45.9084 102.099 46.1426C101.556 46.3769 100.965 46.4801 100.374 46.4441C99.9929 46.5155 99.6005 46.5017 99.2252 46.4039C98.8498 46.3061 98.5009 46.1265 98.2037 45.8782C97.9064 45.6299 97.6682 45.3191 97.5061 44.968C97.344 44.617 97.2621 44.2345 97.2663 43.8481C97.2663 41.2355 99.9064 40.7197 103.382 40.52C103.332 39.5881 103.165 39.2387 101.945 39.2387ZM103.466 42.3671C101.544 42.3671 100.291 42.7332 100.291 43.5819C100.3 43.6867 100.332 43.7883 100.384 43.8798C100.436 43.9712 100.507 44.0505 100.593 44.1121C100.678 44.1736 100.776 44.2161 100.88 44.2366C100.983 44.2571 101.09 44.2552 101.193 44.2309C101.73 44.2521 102.256 44.0727 102.667 43.7279C103.078 43.3831 103.345 42.8978 103.415 42.3671H103.466Z"
            fill="#FFFFFF"></path>
        <path
            d="M107.726 44.7967L109.397 42.9995C109.83 43.3819 110.335 43.6734 110.884 43.8564C111.432 44.0394 112.012 44.1102 112.589 44.0645C113.775 44.0645 114.042 43.8315 114.042 43.4488C114.042 43.0661 113.641 43.0328 111.97 42.9163C109.698 42.65 108.177 42.0676 108.177 39.8877C108.177 37.7078 110.082 36.9257 112.472 36.9257C113.927 36.8508 115.375 37.1852 116.649 37.8908L115.245 39.921C114.39 39.3784 113.383 39.1219 112.371 39.1888C111.152 39.1888 111.018 39.4883 111.018 39.7546C111.018 40.0208 111.285 40.2538 112.689 40.3536C114.744 40.5034 117.017 40.936 117.017 43.3656C117.017 45.5455 115.346 46.494 112.672 46.494C111.775 46.5569 110.875 46.4389 110.025 46.1473C109.176 45.8556 108.394 45.3963 107.726 44.7967Z"
            fill="#FFFFFF"></path>
        <path
            d="M19.3162 53.4498C19.2925 52.82 19.4001 52.1921 19.6323 51.6059C19.8645 51.0196 20.2163 50.4876 20.6654 50.0435C21.1144 49.5994 21.651 49.2529 22.2414 49.0257C22.8317 48.7986 23.4629 48.6958 24.0951 48.7239C24.9452 48.6512 25.7973 48.8385 26.5377 49.2607C27.2782 49.6829 27.8717 50.32 28.2391 51.0868L26.2674 52.2683C26.1299 51.8167 25.8447 51.4239 25.4571 51.1525C25.0694 50.8811 24.6018 50.7467 24.1285 50.7707C23.788 50.7589 23.449 50.8225 23.1361 50.9568C22.8232 51.0911 22.544 51.2928 22.3187 51.5474C22.0934 51.802 21.9276 52.1032 21.8331 52.4292C21.7387 52.7553 21.718 53.0982 21.7725 53.4332C21.7077 53.779 21.7213 54.1349 21.8122 54.4748C21.9032 54.8148 22.0692 55.1302 22.2982 55.3981C22.5272 55.666 22.8133 55.8796 23.1358 56.0233C23.4582 56.167 23.8088 56.2372 24.162 56.2288C24.6624 56.2247 25.1483 56.0608 25.5483 55.7613C25.9483 55.4617 26.2414 55.0424 26.3843 54.5647L28.4229 55.7795C27.8992 56.7125 27.0802 57.4468 26.0936 57.8677C25.107 58.2887 24.0083 58.3728 22.9688 58.1068C21.9292 57.8409 21.0072 57.2399 20.3465 56.3975C19.6858 55.5551 19.3236 54.5187 19.3162 53.4498Z"
            fill="#FFFFFF"></path>
        <path
            d="M28.5898 54.9641C28.5898 54.0814 28.9419 53.2349 29.5687 52.6108C30.1954 51.9866 31.0454 51.636 31.9317 51.636C32.8181 51.636 33.6681 51.9866 34.2948 52.6108C34.9216 53.2349 35.2737 54.0814 35.2737 54.9641C35.2737 55.8468 34.9216 56.6933 34.2948 57.3175C33.6681 57.9416 32.8181 58.2923 31.9317 58.2923C31.0454 58.2923 30.1954 57.9416 29.5687 57.3175C28.9419 56.6933 28.5898 55.8468 28.5898 54.9641ZM33.1682 54.9641C33.2116 54.7809 33.2128 54.5903 33.1717 54.4066C33.1306 54.2228 33.0483 54.0507 32.931 53.9031C32.8137 53.7555 32.6644 53.6363 32.4942 53.5543C32.3241 53.4724 32.1375 53.4298 31.9485 53.4298C31.7594 53.4298 31.5729 53.4724 31.4027 53.5543C31.2326 53.6363 31.0832 53.7555 30.9659 53.9031C30.8486 54.0507 30.7663 54.2228 30.7252 54.4066C30.6841 54.5903 30.6853 54.7809 30.7287 54.9641C30.6779 55.1536 30.6721 55.3521 30.7117 55.5442C30.7513 55.7363 30.8351 55.9165 30.9567 56.0708C31.0782 56.225 31.2341 56.349 31.412 56.4329C31.5899 56.5169 31.785 56.5585 31.9818 56.5544C32.1786 56.5504 32.3718 56.5009 32.5461 56.4097C32.7204 56.3186 32.871 56.1883 32.9861 56.0292C33.1012 55.8702 33.1775 55.6866 33.2091 55.4931C33.2408 55.2996 33.2268 55.1014 33.1682 54.9142V54.9641Z"
            fill="#FFFFFF"></path>
        <path
            d="M36.0757 51.7691H38.2145V52.9007C38.4264 52.5017 38.7478 52.1709 39.1413 51.947C39.5348 51.7231 39.9841 51.6152 40.4369 51.636C40.7196 51.6047 41.0057 51.6386 41.2732 51.735C41.5406 51.8315 41.7822 51.9879 41.9793 52.1922C42.1764 52.3965 42.3236 52.6432 42.4096 52.9132C42.4957 53.1832 42.5182 53.4693 42.4754 53.7494V58.0427H40.3032V54.4816C40.3341 54.3547 40.3352 54.2226 40.3064 54.0953C40.2777 53.968 40.2198 53.849 40.1374 53.7475C40.0549 53.6461 39.9501 53.565 39.8311 53.5105C39.712 53.456 39.582 53.4295 39.451 53.4332C38.6489 53.4332 38.2145 53.8492 38.2145 55.1805V58.0427H36.0757V51.8024V51.7691Z"
            fill="#FFFFFF"></path>
        <path
            d="M43.0605 57.0775L44.1801 55.8461C44.477 56.1081 44.8238 56.3079 45.1998 56.4337C45.5759 56.5595 45.9735 56.6087 46.369 56.5783C47.1878 56.5783 47.3549 56.4285 47.3549 56.1623C47.3549 55.896 47.121 55.8794 45.9513 55.7462C44.3806 55.5632 43.3446 55.1638 43.3446 53.6662C43.3446 52.1685 44.6479 51.6194 46.3022 51.6194C47.3039 51.5684 48.2999 51.799 49.1762 52.285L48.2071 53.6828C47.6179 53.3164 46.9287 53.1419 46.2354 53.1836C45.3999 53.1836 45.2996 53.3833 45.2996 53.5663C45.2996 53.7494 45.4834 53.8991 46.4693 53.9823C47.8896 54.0988 49.4436 54.3817 49.4436 56.0624C49.4436 57.7431 48.3073 58.2091 46.4526 58.2091C45.8401 58.254 45.2247 58.1771 44.6423 57.9828C44.06 57.7885 43.5223 57.4808 43.0605 57.0775Z"
            fill="#FFFFFF"></path>
        <path
            d="M53.337 56.5616C53.6272 56.604 53.9235 56.5526 54.1822 56.4148C54.4408 56.277 54.6483 56.0601 54.774 55.7961L56.5786 56.3619C56.2878 56.9565 55.8258 57.4514 55.2514 57.7833C54.677 58.1153 54.0163 58.2693 53.3537 58.2257C52.6687 58.2385 51.9964 58.0413 51.4277 57.6609C50.859 57.2805 50.4215 56.7352 50.1743 56.099C49.9272 55.4627 49.8823 54.7661 50.0458 54.1036C50.2094 53.4411 50.5734 52.8447 51.0886 52.3951C51.6039 51.9454 52.2454 51.6644 52.9263 51.5899C53.6073 51.5154 54.2948 51.6512 54.8957 51.9787C55.4966 52.3063 55.9819 52.8099 56.2859 53.4212C56.5899 54.0326 56.6979 54.7222 56.5953 55.3968H52.0336C52.0592 55.7204 52.2088 56.0219 52.4514 56.2387C52.694 56.4556 53.0111 56.5712 53.337 56.5616ZM54.5567 54.182C54.5383 54.0394 54.4915 53.9019 54.4191 53.7775C54.3467 53.6531 54.2501 53.5443 54.1349 53.4576C54.0198 53.3708 53.8884 53.3078 53.7486 53.2721C53.6087 53.2365 53.4631 53.229 53.3202 53.2501C53.1742 53.2264 53.025 53.2318 52.881 53.2659C52.7371 53.3 52.6014 53.3622 52.4818 53.4489C52.3622 53.5355 52.2609 53.6449 52.184 53.7708C52.1071 53.8966 52.056 54.0364 52.0336 54.182H54.5567Z"
            fill="#FFFFFF"></path>
        <path
            d="M57.4473 51.7691H59.5861V52.5346C59.7262 52.2793 59.9311 52.065 60.1803 51.9132C60.4295 51.7614 60.7143 51.6773 61.0064 51.6693C61.3874 51.6398 61.7649 51.7591 62.0591 52.0021L61.2069 53.9158C61.1223 53.8193 61.0164 53.7435 60.8976 53.6945C60.7788 53.6454 60.6502 53.6243 60.5218 53.6329C59.9203 53.6329 59.6529 53.999 59.6529 54.7977V58.026H57.5141V51.7858L57.4473 51.7691Z"
            fill="#FFFFFF"></path>
        <path
            d="M61.8418 51.7691H64.131L65.3341 55.5632L66.6708 51.7691H68.793L66.3868 58.0094H64.1644L61.8418 51.7691Z"
            fill="#FFFFFF"></path>
        <path
            d="M71.8676 53.2668C71.5487 53.2577 71.232 53.322 70.9422 53.4548C70.6524 53.5875 70.3972 53.7852 70.1967 54.0323L68.8599 52.9173C69.2871 52.4679 69.8071 52.116 70.3841 51.8862C70.961 51.6564 71.5812 51.554 72.2018 51.5861C73.5386 51.5861 74.9756 51.8856 74.9756 53.5996V55.9459C74.9756 56.4951 75.1427 56.6282 75.4435 56.6282C75.5478 56.6536 75.6567 56.6536 75.7609 56.6282L75.2095 57.8929C74.9353 57.9877 74.6476 58.0383 74.3573 58.0427C74.0502 58.0813 73.7386 58.0235 73.466 57.8773C73.1935 57.7311 72.9735 57.5039 72.8368 57.2273C72.5784 57.5385 72.2503 57.785 71.8788 57.9468C71.5073 58.1087 71.1028 58.1814 70.698 58.1592C70.436 58.2083 70.1664 58.1991 69.9085 58.1321C69.6506 58.0652 69.4108 57.9422 69.2063 57.7719C69.0018 57.6017 68.8377 57.3885 68.7258 57.1475C68.6139 56.9066 68.557 56.644 68.5591 56.3786C68.5591 54.5814 70.3805 54.232 72.7699 54.0988C72.8034 53.4831 72.6864 53.2668 71.8676 53.2668ZM72.9036 55.4134C71.5836 55.4134 70.7147 55.6631 70.7147 56.2455C70.7199 56.3178 70.7409 56.3882 70.7762 56.4517C70.8115 56.5151 70.8603 56.5701 70.9192 56.6129C70.978 56.6557 71.0455 56.6852 71.117 56.6993C71.1884 56.7134 71.2621 56.7119 71.3329 56.6948C71.7006 56.7063 72.0596 56.5817 72.3404 56.3451C72.6213 56.1084 72.8041 55.7765 72.8535 55.4134H72.9036Z"
            fill="#FFFFFF"></path>
        <path
            d="M76.396 51.7691H78.5515V52.9007C78.7649 52.503 79.0867 52.1734 79.4798 51.9496C79.873 51.7259 80.3215 51.6172 80.7739 51.636C81.0566 51.6047 81.3428 51.6386 81.6102 51.735C81.8777 51.8315 82.1193 51.9879 82.3163 52.1922C82.5134 52.3965 82.6606 52.6432 82.7466 52.9132C82.8327 53.1832 82.8552 53.4693 82.8125 53.7494V58.0427H80.6736V54.4816C80.7045 54.3547 80.7056 54.2226 80.6769 54.0953C80.6481 53.968 80.5902 53.849 80.5078 53.7475C80.4254 53.6461 80.3206 53.565 80.2015 53.5105C80.0825 53.456 79.9524 53.4295 79.8215 53.4332C79.0194 53.4332 78.5849 53.8492 78.5849 55.1805V58.0427H76.4461V51.8024L76.396 51.7691Z"
            fill="#FFFFFF"></path>
        <path
            d="M83.5645 54.9641C83.5349 54.5194 83.6011 54.0736 83.7586 53.6565C83.9161 53.2394 84.1613 52.8606 84.4777 52.5454C84.7941 52.2303 85.1745 51.9862 85.5933 51.8293C86.0122 51.6725 86.4599 51.6065 86.9064 51.636C87.5561 51.5787 88.2065 51.737 88.7565 52.0861C89.3065 52.4352 89.7253 52.9556 89.9475 53.5663L88.2765 54.415C88.2165 54.1253 88.0602 53.8642 87.8328 53.674C87.6054 53.4838 87.3202 53.3755 87.0233 53.3666C86.2547 53.3666 85.8202 53.8658 85.8202 54.9308C85.7736 55.1214 85.7692 55.3199 85.8075 55.5123C85.8458 55.7048 85.9258 55.8866 86.042 56.0451C86.1581 56.2035 86.3076 56.3348 86.48 56.4298C86.6524 56.5248 86.8435 56.5811 87.04 56.5949C87.3491 56.5885 87.6453 56.47 87.8729 56.2617C88.1006 56.0534 88.2441 55.7695 88.2765 55.4633L90.0812 56.2454C89.8499 56.881 89.4116 57.4213 88.8363 57.7802C88.2609 58.139 87.5816 58.2958 86.9064 58.2257C86.4639 58.2624 86.0187 58.2038 85.601 58.0538C85.1834 57.9038 84.803 57.666 84.4859 57.3565C84.1688 57.047 83.9224 56.6731 83.7634 56.2603C83.6044 55.8475 83.5365 55.4054 83.5645 54.9641Z"
            fill="#FFFFFF"></path>
        <path
            d="M90.0142 51.7691H92.3034L93.5733 55.3801L94.8766 51.7691H96.9319L94.5257 57.6932C94.2848 58.5301 93.8164 59.2845 93.1723 59.8731C92.7514 60.1636 92.2469 60.3097 91.7352 60.2891C91.3426 60.3033 90.9541 60.2052 90.6157 60.0062V58.3422C90.718 58.4376 90.8393 58.5106 90.9717 58.5565C91.1041 58.6023 91.2446 58.62 91.3843 58.6084C91.5978 58.6409 91.8159 58.5945 91.9974 58.478C92.179 58.3616 92.3116 58.1831 92.3702 57.9761L90.0142 51.7691Z"
            fill="#FFFFFF"></path>
    </g>
    <defs>
        <clipPath id="clip0_1057_1517">
            <rect width="117" height="96" fill="white"></rect>
        </clipPath>
    </defs>
</svg>